<svg width="16" height="16" viewBox="0 0 16 16" fill="none" xmlns="http://www.w3.org/2000/svg">
<path d="M13.0203 3.68681C13.2155 3.49154 13.2155 3.17496 13.0203 2.9797C12.825 2.78444 12.5084 2.78444 12.3132 2.9797L8.00005 7.29282L3.68693 2.9797C3.49167 2.78444 3.17508 2.78444 2.97982 2.9797C2.78456 3.17496 2.78456 3.49155 2.97982 3.68681L7.29294 7.99993L2.97984 12.313C2.78458 12.5083 2.78458 12.8249 2.97984 13.0201C3.1751 13.2154 3.49168 13.2154 3.68695 13.0201L8.00005 8.70704L12.3132 13.0201C12.5084 13.2154 12.825 13.2154 13.0203 13.0201C13.2155 12.8249 13.2155 12.5083 13.0203 12.313L8.70716 7.99993L13.0203 3.68681Z" fill="#666666"/>
</svg>
