<svg width="18" height="18" viewBox="0 0 18 18" fill="none" xmlns="http://www.w3.org/2000/svg">
<path fill-rule="evenodd" clip-rule="evenodd" d="M12.0396 3.45584C12.0396 2.31675 12.963 1.39334 14.1021 1.39334C15.2411 1.39334 16.1646 2.31675 16.1646 3.45584C16.1646 4.59493 15.2411 5.51834 14.1021 5.51834C12.963 5.51834 12.0396 4.59493 12.0396 3.45584ZM14.1021 2.51834C13.5843 2.51834 13.1646 2.93807 13.1646 3.45584C13.1646 3.97361 13.5843 4.39334 14.1021 4.39334C14.6198 4.39334 15.0396 3.97361 15.0396 3.45584C15.0396 2.93807 14.6198 2.51834 14.1021 2.51834Z" fill="#666666"/>
<path fill-rule="evenodd" clip-rule="evenodd" d="M16.4678 6.22501C16.3615 5.91054 15.9628 5.8324 15.6807 6.00733C15.4619 6.14299 15.3459 6.41232 15.4256 6.65708C16.209 9.06088 15.6456 11.8079 13.7354 13.7181C12.9569 14.4966 11.7201 15.239 10.3385 15.5695C8.96481 15.8981 7.4898 15.8115 6.17981 15.0019L6.14385 14.9797C6.0186 14.902 5.89491 14.8254 5.78472 14.7817C5.58725 14.7035 5.41214 14.6771 5.20038 14.6934C5.08254 14.7025 4.96 14.7345 4.84247 14.7651L4.81155 14.7732C4.33214 14.8974 4 14.9832 3.7447 15.0313C3.4868 15.08 3.37096 15.0765 3.31003 15.0641C2.94142 14.9891 2.65334 14.701 2.57832 14.3324C2.56592 14.2714 2.56243 14.1556 2.61106 13.8977C2.6592 13.6424 2.74497 13.3103 2.86923 12.8308L2.87727 12.7999C2.90792 12.6823 2.9399 12.5596 2.94897 12.4414C2.96524 12.2294 2.93835 12.053 2.85967 11.8554C2.81569 11.745 2.73891 11.6218 2.66136 11.4974L2.63917 11.4617C1.82474 10.1512 1.72368 8.69267 2.04359 7.33148C2.36544 5.96203 3.1078 4.72349 3.92434 3.90695C5.80672 2.02457 8.5017 1.45006 10.8801 2.18341C11.1261 2.25925 11.3936 2.1387 11.5257 1.91781C11.6961 1.63295 11.6115 1.23568 11.2954 1.13445C8.51124 0.242937 5.33836 0.901936 3.12885 3.11145C2.16909 4.07121 1.31969 5.4944 0.948427 7.0741C0.575223 8.66206 0.679715 10.4401 1.68365 12.0555C1.73562 12.1392 1.76875 12.1926 1.7924 12.233C1.80804 12.2597 1.81425 12.2719 1.81571 12.2748C1.82599 12.301 1.82752 12.3108 1.82775 12.3124C1.828 12.314 1.82959 12.3242 1.82736 12.3541C1.82703 12.3565 1.82551 12.3662 1.82044 12.3887C1.81247 12.4239 1.80052 12.4703 1.78022 12.5486L1.77507 12.5684C1.65719 13.0232 1.56155 13.3922 1.50554 13.6892C1.44921 13.9879 1.41917 14.2778 1.47592 14.5567C1.64096 15.3677 2.27473 16.0014 3.08568 16.1665C3.36456 16.2232 3.65445 16.1932 3.95317 16.1369C4.25017 16.0808 4.61908 15.9852 5.07383 15.8674L5.09381 15.8622C5.17211 15.8419 5.21851 15.8299 5.25377 15.8219C5.27615 15.8169 5.28597 15.8153 5.28831 15.815C5.31942 15.8127 5.32983 15.8145 5.32983 15.8145C5.32983 15.8145 5.34061 15.8161 5.36719 15.8264C5.37014 15.8279 5.38272 15.8343 5.40961 15.8499C5.45032 15.8737 5.50421 15.9069 5.5884 15.9589C7.21076 16.9615 9.00843 17.0444 10.6002 16.6636C12.1842 16.2847 13.6057 15.4388 14.5309 14.5135C16.7728 12.2717 17.4184 9.03809 16.4678 6.22501Z" fill="#666666"/>
<path d="M6.60198 8.70585C6.60198 9.12007 6.2662 9.45585 5.85198 9.45585C5.43777 9.45585 5.10198 9.12007 5.10198 8.70585C5.10198 8.29164 5.43777 7.95585 5.85198 7.95585C6.2662 7.95585 6.60198 8.29164 6.60198 8.70585Z" fill="#666666"/>
<path d="M9.60198 8.70585C9.60198 9.12007 9.2662 9.45585 8.85198 9.45585C8.43777 9.45585 8.10198 9.12007 8.10198 8.70585C8.10198 8.29164 8.43777 7.95585 8.85198 7.95585C9.2662 7.95585 9.60198 8.29164 9.60198 8.70585Z" fill="#666666"/>
<path d="M12.602 8.70585C12.602 9.12007 12.2662 9.45585 11.852 9.45585C11.4378 9.45585 11.102 9.12007 11.102 8.70585C11.102 8.29164 11.4378 7.95585 11.852 7.95585C12.2662 7.95585 12.602 8.29164 12.602 8.70585Z" fill="#666666"/>
</svg>
