<svg width="18" height="18" viewBox="0 0 18 18" fill="none" xmlns="http://www.w3.org/2000/svg">
<path fill-rule="evenodd" clip-rule="evenodd" d="M15.6351 2.95168C14.6395 1.9363 13.531 1.62218 12.4901 1.69838C11.4773 1.77253 10.5653 2.21185 9.8991 2.63443C9.37377 2.96767 8.62601 2.96767 8.10068 2.63443C7.43452 2.21186 6.52245 1.77254 5.50968 1.6984C4.46876 1.62219 3.36034 1.93631 2.36467 2.95168C1.18922 4.15039 0.820427 5.63016 0.968518 7.12699C1.1149 8.60656 1.7639 10.1106 2.62948 11.4434C3.49738 12.7797 4.60602 13.9794 5.71824 14.8506C6.80601 15.7026 7.98953 16.3125 8.99992 16.3125C10.0103 16.3125 11.1938 15.7026 12.2816 14.8506C13.3938 13.9794 14.5024 12.7797 15.3703 11.4434C16.2359 10.1106 16.8849 8.60656 17.0313 7.12699C17.1794 5.63016 16.8106 4.15039 15.6351 2.95168ZM10.5017 3.58441C11.0908 3.21073 11.82 2.87546 12.5723 2.82038C13.2964 2.76737 14.0769 2.96942 14.8319 3.73934C15.7343 4.65962 16.0331 5.7899 15.9118 7.01623C15.7887 8.2598 15.2313 9.59197 14.4269 10.8306C13.6247 12.0657 12.5997 13.1724 11.5879 13.9649C10.5516 14.7766 9.62084 15.1875 8.99992 15.1875C8.379 15.1875 7.4482 14.7766 6.41195 13.9649C5.40016 13.1724 4.37511 12.0657 3.57296 10.8306C2.76849 9.59197 2.21109 8.2598 2.08805 7.01623C1.96672 5.78991 2.2655 4.65962 3.16792 3.73934C3.92289 2.96943 4.7034 2.76738 5.42754 2.82039C6.17984 2.87547 6.90898 3.21074 7.49807 3.58442C8.39126 4.151 9.60853 4.151 10.5017 3.58441Z" fill="#666666"/>
</svg>
