<svg width="18" height="18" viewBox="0 0 18 18" fill="none" xmlns="http://www.w3.org/2000/svg">
<path fill-rule="evenodd" clip-rule="evenodd" d="M3.88168 6.67436C5.17204 6.67436 6.21808 7.71558 6.21808 8.99999C6.21808 10.2844 5.17204 11.3256 3.88168 11.3256C2.59132 11.3256 1.54528 10.2844 1.54528 8.99999C1.54528 7.71558 2.59132 6.67436 3.88168 6.67436ZM4.94368 8.99999C4.94368 8.41616 4.46821 7.94288 3.88168 7.94288C3.29516 7.94288 2.81968 8.41616 2.81968 8.99999C2.81968 9.58381 3.29516 10.0571 3.88168 10.0571C4.46821 10.0571 4.94368 9.58381 4.94368 8.99999Z" fill="#666666"/>
<path fill-rule="evenodd" clip-rule="evenodd" d="M14.0772 2.30497C15.3676 2.30497 16.4136 3.34619 16.4136 4.6306C16.4136 5.91501 15.3676 6.95623 14.0772 6.95623C12.7869 6.95623 11.7408 5.91501 11.7408 4.6306C11.7408 3.34619 12.7869 2.30497 14.0772 2.30497ZM15.1392 4.6306C15.1392 4.04678 14.6638 3.5735 14.0772 3.5735C13.4907 3.5735 13.0152 4.04678 13.0152 4.6306C13.0152 5.21443 13.4907 5.68771 14.0772 5.68771C14.6638 5.68771 15.1392 5.21443 15.1392 4.6306Z" fill="#666666"/>
<path fill-rule="evenodd" clip-rule="evenodd" d="M14.1183 11.0437C15.4086 11.0437 16.4547 12.085 16.4547 13.3694C16.4547 14.6538 15.4086 15.695 14.1183 15.695C12.8279 15.695 11.7819 14.6538 11.7819 13.3694C11.7819 12.085 12.8279 11.0437 14.1183 11.0437ZM15.1803 13.3694C15.1803 12.7855 14.7048 12.3123 14.1183 12.3123C13.5317 12.3123 13.0563 12.7855 13.0563 13.3694C13.0563 13.9532 13.5317 14.4265 14.1183 14.4265C14.7048 14.4265 15.1803 13.9532 15.1803 13.3694Z" fill="#666666"/>
<path d="M11.5027 5.63084C11.3497 5.30279 10.9597 5.16086 10.6317 5.31383L6.76729 7.11582C6.43924 7.2688 6.29731 7.65875 6.45028 7.98681C6.60326 8.31486 6.99321 8.4568 7.32127 8.30382L11.1857 6.50183C11.5137 6.34885 11.6556 5.9589 11.5027 5.63084Z" fill="#666666"/>
<path d="M11.5283 12.7332C11.3753 13.0612 10.9854 13.2032 10.6573 13.0502L6.79717 11.2502C6.46912 11.0972 6.32719 10.7072 6.48016 10.3792C6.63314 10.0511 7.02309 9.9092 7.35115 10.0622L11.2113 11.8622C11.5393 12.0152 11.6813 12.4051 11.5283 12.7332Z" fill="#666666"/>
</svg>
